<?xml version="1.0" encoding="utf-8" standalone="no"?>
<!DOCTYPE svg PUBLIC "-//W3C//DTD SVG 1.1//EN"
  "http://www.w3.org/Graphics/SVG/1.1/DTD/svg11.dtd">
<svg xmlns:xlink="http://www.w3.org/1999/xlink" width="756.374375pt" height="532.196792pt" viewBox="0 0 756.374375 532.196792" xmlns="http://www.w3.org/2000/svg" version="1.1">
 <metadata>
  <rdf:RDF xmlns:dc="http://purl.org/dc/elements/1.1/" xmlns:cc="http://creativecommons.org/ns#" xmlns:rdf="http://www.w3.org/1999/02/22-rdf-syntax-ns#">
   <cc:Work>
    <dc:type rdf:resource="http://purl.org/dc/dcmitype/StillImage"/>
    <dc:date>2025-10-14T18:43:30.115083</dc:date>
    <dc:format>image/svg+xml</dc:format>
    <dc:creator>
     <cc:Agent>
      <dc:title>Matplotlib v3.10.1, https://matplotlib.org/</dc:title>
     </cc:Agent>
    </dc:creator>
   </cc:Work>
  </rdf:RDF>
 </metadata>
 <defs>
  <style type="text/css">*{stroke-linejoin: round; stroke-linecap: butt}</style>
 </defs>
 <g id="figure_1">
  <g id="patch_1">
   <path d="M 0 532.196792 
L 756.374375 532.196792 
L 756.374375 0 
L 0 0 
z
" style="fill: #ffffff"/>
  </g>
  <g id="axes_1">
   <g id="patch_2">
    <path d="M 79.574375 339.84 
L 749.174375 339.84 
L 749.174375 7.2 
L 79.574375 7.2 
z
" style="fill: #ffffff"/>
   </g>
   <g id="matplotlib.axis_1">
    <g id="xtick_1">
     <g id="line2d_1">
      <defs>
       <path id="m493d60de8a" d="M 0 0 
L 0 3.5 
" style="stroke: #000000; stroke-width: 1.6"/>
      </defs>
      <g>
       <use xlink:href="#m493d60de8a" x="110.010739" y="339.84" style="stroke: #000000; stroke-width: 1.6"/>
      </g>
     </g>
     <g id="text_1">
      <!-- Heat Capacity P -->
      <g transform="translate(94.533025 463.175195) rotate(-70) scale(0.14 -0.14)">
       <defs>
        <path id="DejaVuSans-48" d="M 628 4666 
L 1259 4666 
L 1259 2753 
L 3553 2753 
L 3553 4666 
L 4184 4666 
L 4184 0 
L 3553 0 
L 3553 2222 
L 1259 2222 
L 1259 0 
L 628 0 
L 628 4666 
z
" transform="scale(0.015625)"/>
        <path id="DejaVuSans-65" d="M 3597 1894 
L 3597 1613 
L 953 1613 
Q 991 1019 1311 708 
Q 1631 397 2203 397 
Q 2534 397 2845 478 
Q 3156 559 3463 722 
L 3463 178 
Q 3153 47 2828 -22 
Q 2503 -91 2169 -91 
Q 1331 -91 842 396 
Q 353 884 353 1716 
Q 353 2575 817 3079 
Q 1281 3584 2069 3584 
Q 2775 3584 3186 3129 
Q 3597 2675 3597 1894 
z
M 3022 2063 
Q 3016 2534 2758 2815 
Q 2500 3097 2075 3097 
Q 1594 3097 1305 2825 
Q 1016 2553 972 2059 
L 3022 2063 
z
" transform="scale(0.015625)"/>
        <path id="DejaVuSans-61" d="M 2194 1759 
Q 1497 1759 1228 1600 
Q 959 1441 959 1056 
Q 959 750 1161 570 
Q 1363 391 1709 391 
Q 2188 391 2477 730 
Q 2766 1069 2766 1631 
L 2766 1759 
L 2194 1759 
z
M 3341 1997 
L 3341 0 
L 2766 0 
L 2766 531 
Q 2569 213 2275 61 
Q 1981 -91 1556 -91 
Q 1019 -91 701 211 
Q 384 513 384 1019 
Q 384 1609 779 1909 
Q 1175 2209 1959 2209 
L 2766 2209 
L 2766 2266 
Q 2766 2663 2505 2880 
Q 2244 3097 1772 3097 
Q 1472 3097 1187 3025 
Q 903 2953 641 2809 
L 641 3341 
Q 956 3463 1253 3523 
Q 1550 3584 1831 3584 
Q 2591 3584 2966 3190 
Q 3341 2797 3341 1997 
z
" transform="scale(0.015625)"/>
        <path id="DejaVuSans-74" d="M 1172 4494 
L 1172 3500 
L 2356 3500 
L 2356 3053 
L 1172 3053 
L 1172 1153 
Q 1172 725 1289 603 
Q 1406 481 1766 481 
L 2356 481 
L 2356 0 
L 1766 0 
Q 1100 0 847 248 
Q 594 497 594 1153 
L 594 3053 
L 172 3053 
L 172 3500 
L 594 3500 
L 594 4494 
L 1172 4494 
z
" transform="scale(0.015625)"/>
        <path id="DejaVuSans-20" transform="scale(0.015625)"/>
        <path id="DejaVuSans-43" d="M 4122 4306 
L 4122 3641 
Q 3803 3938 3442 4084 
Q 3081 4231 2675 4231 
Q 1875 4231 1450 3742 
Q 1025 3253 1025 2328 
Q 1025 1406 1450 917 
Q 1875 428 2675 428 
Q 3081 428 3442 575 
Q 3803 722 4122 1019 
L 4122 359 
Q 3791 134 3420 21 
Q 3050 -91 2638 -91 
Q 1578 -91 968 557 
Q 359 1206 359 2328 
Q 359 3453 968 4101 
Q 1578 4750 2638 4750 
Q 3056 4750 3426 4639 
Q 3797 4528 4122 4306 
z
" transform="scale(0.015625)"/>
        <path id="DejaVuSans-70" d="M 1159 525 
L 1159 -1331 
L 581 -1331 
L 581 3500 
L 1159 3500 
L 1159 2969 
Q 1341 3281 1617 3432 
Q 1894 3584 2278 3584 
Q 2916 3584 3314 3078 
Q 3713 2572 3713 1747 
Q 3713 922 3314 415 
Q 2916 -91 2278 -91 
Q 1894 -91 1617 61 
Q 1341 213 1159 525 
z
M 3116 1747 
Q 3116 2381 2855 2742 
Q 2594 3103 2138 3103 
Q 1681 3103 1420 2742 
Q 1159 2381 1159 1747 
Q 1159 1113 1420 752 
Q 1681 391 2138 391 
Q 2594 391 2855 752 
Q 3116 1113 3116 1747 
z
" transform="scale(0.015625)"/>
        <path id="DejaVuSans-63" d="M 3122 3366 
L 3122 2828 
Q 2878 2963 2633 3030 
Q 2388 3097 2138 3097 
Q 1578 3097 1268 2742 
Q 959 2388 959 1747 
Q 959 1106 1268 751 
Q 1578 397 2138 397 
Q 2388 397 2633 464 
Q 2878 531 3122 666 
L 3122 134 
Q 2881 22 2623 -34 
Q 2366 -91 2075 -91 
Q 1284 -91 818 406 
Q 353 903 353 1747 
Q 353 2603 823 3093 
Q 1294 3584 2113 3584 
Q 2378 3584 2631 3529 
Q 2884 3475 3122 3366 
z
" transform="scale(0.015625)"/>
        <path id="DejaVuSans-69" d="M 603 3500 
L 1178 3500 
L 1178 0 
L 603 0 
L 603 3500 
z
M 603 4863 
L 1178 4863 
L 1178 4134 
L 603 4134 
L 603 4863 
z
" transform="scale(0.015625)"/>
        <path id="DejaVuSans-79" d="M 2059 -325 
Q 1816 -950 1584 -1140 
Q 1353 -1331 966 -1331 
L 506 -1331 
L 506 -850 
L 844 -850 
Q 1081 -850 1212 -737 
Q 1344 -625 1503 -206 
L 1606 56 
L 191 3500 
L 800 3500 
L 1894 763 
L 2988 3500 
L 3597 3500 
L 2059 -325 
z
" transform="scale(0.015625)"/>
        <path id="DejaVuSans-50" d="M 1259 4147 
L 1259 2394 
L 2053 2394 
Q 2494 2394 2734 2622 
Q 2975 2850 2975 3272 
Q 2975 3691 2734 3919 
Q 2494 4147 2053 4147 
L 1259 4147 
z
M 628 4666 
L 2053 4666 
Q 2838 4666 3239 4311 
Q 3641 3956 3641 3272 
Q 3641 2581 3239 2228 
Q 2838 1875 2053 1875 
L 1259 1875 
L 1259 0 
L 628 0 
L 628 4666 
z
" transform="scale(0.015625)"/>
       </defs>
       <use xlink:href="#DejaVuSans-48"/>
       <use xlink:href="#DejaVuSans-65" transform="translate(75.195312 0)"/>
       <use xlink:href="#DejaVuSans-61" transform="translate(136.71875 0)"/>
       <use xlink:href="#DejaVuSans-74" transform="translate(197.998047 0)"/>
       <use xlink:href="#DejaVuSans-20" transform="translate(237.207031 0)"/>
       <use xlink:href="#DejaVuSans-43" transform="translate(268.994141 0)"/>
       <use xlink:href="#DejaVuSans-61" transform="translate(338.818359 0)"/>
       <use xlink:href="#DejaVuSans-70" transform="translate(400.097656 0)"/>
       <use xlink:href="#DejaVuSans-61" transform="translate(463.574219 0)"/>
       <use xlink:href="#DejaVuSans-63" transform="translate(524.853516 0)"/>
       <use xlink:href="#DejaVuSans-69" transform="translate(579.833984 0)"/>
       <use xlink:href="#DejaVuSans-74" transform="translate(607.617188 0)"/>
       <use xlink:href="#DejaVuSans-79" transform="translate(646.826172 0)"/>
       <use xlink:href="#DejaVuSans-20" transform="translate(706.005859 0)"/>
       <use xlink:href="#DejaVuSans-50" transform="translate(737.792969 0)"/>
      </g>
     </g>
    </g>
    <g id="xtick_2">
     <g id="line2d_2">
      <g>
       <use xlink:href="#m493d60de8a" x="148.056193" y="339.84" style="stroke: #000000; stroke-width: 1.6"/>
      </g>
     </g>
     <g id="text_2">
      <!-- Viscosity -->
      <g transform="translate(141.1409 416.125079) rotate(-70) scale(0.14 -0.14)">
       <defs>
        <path id="DejaVuSans-56" d="M 1831 0 
L 50 4666 
L 709 4666 
L 2188 738 
L 3669 4666 
L 4325 4666 
L 2547 0 
L 1831 0 
z
" transform="scale(0.015625)"/>
        <path id="DejaVuSans-73" d="M 2834 3397 
L 2834 2853 
Q 2591 2978 2328 3040 
Q 2066 3103 1784 3103 
Q 1356 3103 1142 2972 
Q 928 2841 928 2578 
Q 928 2378 1081 2264 
Q 1234 2150 1697 2047 
L 1894 2003 
Q 2506 1872 2764 1633 
Q 3022 1394 3022 966 
Q 3022 478 2636 193 
Q 2250 -91 1575 -91 
Q 1294 -91 989 -36 
Q 684 19 347 128 
L 347 722 
Q 666 556 975 473 
Q 1284 391 1588 391 
Q 1994 391 2212 530 
Q 2431 669 2431 922 
Q 2431 1156 2273 1281 
Q 2116 1406 1581 1522 
L 1381 1569 
Q 847 1681 609 1914 
Q 372 2147 372 2553 
Q 372 3047 722 3315 
Q 1072 3584 1716 3584 
Q 2034 3584 2315 3537 
Q 2597 3491 2834 3397 
z
" transform="scale(0.015625)"/>
        <path id="DejaVuSans-6f" d="M 1959 3097 
Q 1497 3097 1228 2736 
Q 959 2375 959 1747 
Q 959 1119 1226 758 
Q 1494 397 1959 397 
Q 2419 397 2687 759 
Q 2956 1122 2956 1747 
Q 2956 2369 2687 2733 
Q 2419 3097 1959 3097 
z
M 1959 3584 
Q 2709 3584 3137 3096 
Q 3566 2609 3566 1747 
Q 3566 888 3137 398 
Q 2709 -91 1959 -91 
Q 1206 -91 779 398 
Q 353 888 353 1747 
Q 353 2609 779 3096 
Q 1206 3584 1959 3584 
z
" transform="scale(0.015625)"/>
       </defs>
       <use xlink:href="#DejaVuSans-56"/>
       <use xlink:href="#DejaVuSans-69" transform="translate(66.158203 0)"/>
       <use xlink:href="#DejaVuSans-73" transform="translate(93.941406 0)"/>
       <use xlink:href="#DejaVuSans-63" transform="translate(146.041016 0)"/>
       <use xlink:href="#DejaVuSans-6f" transform="translate(201.021484 0)"/>
       <use xlink:href="#DejaVuSans-73" transform="translate(262.203125 0)"/>
       <use xlink:href="#DejaVuSans-69" transform="translate(314.302734 0)"/>
       <use xlink:href="#DejaVuSans-74" transform="translate(342.085938 0)"/>
       <use xlink:href="#DejaVuSans-79" transform="translate(381.294922 0)"/>
      </g>
     </g>
    </g>
    <g id="xtick_3">
     <g id="line2d_3">
      <g>
       <use xlink:href="#m493d60de8a" x="186.101648" y="339.84" style="stroke: #000000; stroke-width: 1.6"/>
      </g>
     </g>
     <g id="text_3">
      <!-- Density -->
      <g transform="translate(180.629947 408.192605) rotate(-70) scale(0.14 -0.14)">
       <defs>
        <path id="DejaVuSans-44" d="M 1259 4147 
L 1259 519 
L 2022 519 
Q 2988 519 3436 956 
Q 3884 1394 3884 2338 
Q 3884 3275 3436 3711 
Q 2988 4147 2022 4147 
L 1259 4147 
z
M 628 4666 
L 1925 4666 
Q 3281 4666 3915 4102 
Q 4550 3538 4550 2338 
Q 4550 1131 3912 565 
Q 3275 0 1925 0 
L 628 0 
L 628 4666 
z
" transform="scale(0.015625)"/>
        <path id="DejaVuSans-6e" d="M 3513 2113 
L 3513 0 
L 2938 0 
L 2938 2094 
Q 2938 2591 2744 2837 
Q 2550 3084 2163 3084 
Q 1697 3084 1428 2787 
Q 1159 2491 1159 1978 
L 1159 0 
L 581 0 
L 581 3500 
L 1159 3500 
L 1159 2956 
Q 1366 3272 1645 3428 
Q 1925 3584 2291 3584 
Q 2894 3584 3203 3211 
Q 3513 2838 3513 2113 
z
" transform="scale(0.015625)"/>
       </defs>
       <use xlink:href="#DejaVuSans-44"/>
       <use xlink:href="#DejaVuSans-65" transform="translate(77.001953 0)"/>
       <use xlink:href="#DejaVuSans-6e" transform="translate(138.525391 0)"/>
       <use xlink:href="#DejaVuSans-73" transform="translate(201.904297 0)"/>
       <use xlink:href="#DejaVuSans-69" transform="translate(254.003906 0)"/>
       <use xlink:href="#DejaVuSans-74" transform="translate(281.787109 0)"/>
       <use xlink:href="#DejaVuSans-79" transform="translate(320.996094 0)"/>
      </g>
     </g>
    </g>
    <g id="xtick_4">
     <g id="line2d_4">
      <g>
       <use xlink:href="#m493d60de8a" x="224.147102" y="339.84" style="stroke: #000000; stroke-width: 1.6"/>
      </g>
     </g>
     <g id="text_4">
      <!-- Heat Capacity V -->
      <g transform="translate(208.475239 464.24204) rotate(-70) scale(0.14 -0.14)">
       <use xlink:href="#DejaVuSans-48"/>
       <use xlink:href="#DejaVuSans-65" transform="translate(75.195312 0)"/>
       <use xlink:href="#DejaVuSans-61" transform="translate(136.71875 0)"/>
       <use xlink:href="#DejaVuSans-74" transform="translate(197.998047 0)"/>
       <use xlink:href="#DejaVuSans-20" transform="translate(237.207031 0)"/>
       <use xlink:href="#DejaVuSans-43" transform="translate(268.994141 0)"/>
       <use xlink:href="#DejaVuSans-61" transform="translate(338.818359 0)"/>
       <use xlink:href="#DejaVuSans-70" transform="translate(400.097656 0)"/>
       <use xlink:href="#DejaVuSans-61" transform="translate(463.574219 0)"/>
       <use xlink:href="#DejaVuSans-63" transform="translate(524.853516 0)"/>
       <use xlink:href="#DejaVuSans-69" transform="translate(579.833984 0)"/>
       <use xlink:href="#DejaVuSans-74" transform="translate(607.617188 0)"/>
       <use xlink:href="#DejaVuSans-79" transform="translate(646.826172 0)"/>
       <use xlink:href="#DejaVuSans-20" transform="translate(706.005859 0)"/>
       <use xlink:href="#DejaVuSans-56" transform="translate(737.792969 0)"/>
      </g>
     </g>
    </g>
    <g id="xtick_5">
     <g id="line2d_5">
      <g>
       <use xlink:href="#m493d60de8a" x="262.192557" y="339.84" style="stroke: #000000; stroke-width: 1.6"/>
      </g>
     </g>
     <g id="text_5">
      <!-- Sound Speed -->
      <g transform="translate(250.016513 445.032667) rotate(-70) scale(0.14 -0.14)">
       <defs>
        <path id="DejaVuSans-53" d="M 3425 4513 
L 3425 3897 
Q 3066 4069 2747 4153 
Q 2428 4238 2131 4238 
Q 1616 4238 1336 4038 
Q 1056 3838 1056 3469 
Q 1056 3159 1242 3001 
Q 1428 2844 1947 2747 
L 2328 2669 
Q 3034 2534 3370 2195 
Q 3706 1856 3706 1288 
Q 3706 609 3251 259 
Q 2797 -91 1919 -91 
Q 1588 -91 1214 -16 
Q 841 59 441 206 
L 441 856 
Q 825 641 1194 531 
Q 1563 422 1919 422 
Q 2459 422 2753 634 
Q 3047 847 3047 1241 
Q 3047 1584 2836 1778 
Q 2625 1972 2144 2069 
L 1759 2144 
Q 1053 2284 737 2584 
Q 422 2884 422 3419 
Q 422 4038 858 4394 
Q 1294 4750 2059 4750 
Q 2388 4750 2728 4690 
Q 3069 4631 3425 4513 
z
" transform="scale(0.015625)"/>
        <path id="DejaVuSans-75" d="M 544 1381 
L 544 3500 
L 1119 3500 
L 1119 1403 
Q 1119 906 1312 657 
Q 1506 409 1894 409 
Q 2359 409 2629 706 
Q 2900 1003 2900 1516 
L 2900 3500 
L 3475 3500 
L 3475 0 
L 2900 0 
L 2900 538 
Q 2691 219 2414 64 
Q 2138 -91 1772 -91 
Q 1169 -91 856 284 
Q 544 659 544 1381 
z
M 1991 3584 
L 1991 3584 
z
" transform="scale(0.015625)"/>
        <path id="DejaVuSans-64" d="M 2906 2969 
L 2906 4863 
L 3481 4863 
L 3481 0 
L 2906 0 
L 2906 525 
Q 2725 213 2448 61 
Q 2172 -91 1784 -91 
Q 1150 -91 751 415 
Q 353 922 353 1747 
Q 353 2572 751 3078 
Q 1150 3584 1784 3584 
Q 2172 3584 2448 3432 
Q 2725 3281 2906 2969 
z
M 947 1747 
Q 947 1113 1208 752 
Q 1469 391 1925 391 
Q 2381 391 2643 752 
Q 2906 1113 2906 1747 
Q 2906 2381 2643 2742 
Q 2381 3103 1925 3103 
Q 1469 3103 1208 2742 
Q 947 2381 947 1747 
z
" transform="scale(0.015625)"/>
       </defs>
       <use xlink:href="#DejaVuSans-53"/>
       <use xlink:href="#DejaVuSans-6f" transform="translate(63.476562 0)"/>
       <use xlink:href="#DejaVuSans-75" transform="translate(124.658203 0)"/>
       <use xlink:href="#DejaVuSans-6e" transform="translate(188.037109 0)"/>
       <use xlink:href="#DejaVuSans-64" transform="translate(251.416016 0)"/>
       <use xlink:href="#DejaVuSans-20" transform="translate(314.892578 0)"/>
       <use xlink:href="#DejaVuSans-53" transform="translate(346.679688 0)"/>
       <use xlink:href="#DejaVuSans-70" transform="translate(410.15625 0)"/>
       <use xlink:href="#DejaVuSans-65" transform="translate(473.632812 0)"/>
       <use xlink:href="#DejaVuSans-65" transform="translate(535.15625 0)"/>
       <use xlink:href="#DejaVuSans-64" transform="translate(596.679688 0)"/>
      </g>
     </g>
    </g>
    <g id="xtick_6">
     <g id="line2d_6">
      <g>
       <use xlink:href="#m493d60de8a" x="300.238011" y="339.84" style="stroke: #000000; stroke-width: 1.6"/>
      </g>
     </g>
     <g id="text_6">
      <!-- Compressibility T -->
      <g transform="translate(283.222436 471.625674) rotate(-70) scale(0.14 -0.14)">
       <defs>
        <path id="DejaVuSans-6d" d="M 3328 2828 
Q 3544 3216 3844 3400 
Q 4144 3584 4550 3584 
Q 5097 3584 5394 3201 
Q 5691 2819 5691 2113 
L 5691 0 
L 5113 0 
L 5113 2094 
Q 5113 2597 4934 2840 
Q 4756 3084 4391 3084 
Q 3944 3084 3684 2787 
Q 3425 2491 3425 1978 
L 3425 0 
L 2847 0 
L 2847 2094 
Q 2847 2600 2669 2842 
Q 2491 3084 2119 3084 
Q 1678 3084 1418 2786 
Q 1159 2488 1159 1978 
L 1159 0 
L 581 0 
L 581 3500 
L 1159 3500 
L 1159 2956 
Q 1356 3278 1631 3431 
Q 1906 3584 2284 3584 
Q 2666 3584 2933 3390 
Q 3200 3197 3328 2828 
z
" transform="scale(0.015625)"/>
        <path id="DejaVuSans-72" d="M 2631 2963 
Q 2534 3019 2420 3045 
Q 2306 3072 2169 3072 
Q 1681 3072 1420 2755 
Q 1159 2438 1159 1844 
L 1159 0 
L 581 0 
L 581 3500 
L 1159 3500 
L 1159 2956 
Q 1341 3275 1631 3429 
Q 1922 3584 2338 3584 
Q 2397 3584 2469 3576 
Q 2541 3569 2628 3553 
L 2631 2963 
z
" transform="scale(0.015625)"/>
        <path id="DejaVuSans-62" d="M 3116 1747 
Q 3116 2381 2855 2742 
Q 2594 3103 2138 3103 
Q 1681 3103 1420 2742 
Q 1159 2381 1159 1747 
Q 1159 1113 1420 752 
Q 1681 391 2138 391 
Q 2594 391 2855 752 
Q 3116 1113 3116 1747 
z
M 1159 2969 
Q 1341 3281 1617 3432 
Q 1894 3584 2278 3584 
Q 2916 3584 3314 3078 
Q 3713 2572 3713 1747 
Q 3713 922 3314 415 
Q 2916 -91 2278 -91 
Q 1894 -91 1617 61 
Q 1341 213 1159 525 
L 1159 0 
L 581 0 
L 581 4863 
L 1159 4863 
L 1159 2969 
z
" transform="scale(0.015625)"/>
        <path id="DejaVuSans-6c" d="M 603 4863 
L 1178 4863 
L 1178 0 
L 603 0 
L 603 4863 
z
" transform="scale(0.015625)"/>
        <path id="DejaVuSans-54" d="M -19 4666 
L 3928 4666 
L 3928 4134 
L 2272 4134 
L 2272 0 
L 1638 0 
L 1638 4134 
L -19 4134 
L -19 4666 
z
" transform="scale(0.015625)"/>
       </defs>
       <use xlink:href="#DejaVuSans-43"/>
       <use xlink:href="#DejaVuSans-6f" transform="translate(69.824219 0)"/>
       <use xlink:href="#DejaVuSans-6d" transform="translate(131.005859 0)"/>
       <use xlink:href="#DejaVuSans-70" transform="translate(228.417969 0)"/>
       <use xlink:href="#DejaVuSans-72" transform="translate(291.894531 0)"/>
       <use xlink:href="#DejaVuSans-65" transform="translate(330.757812 0)"/>
       <use xlink:href="#DejaVuSans-73" transform="translate(392.28125 0)"/>
       <use xlink:href="#DejaVuSans-73" transform="translate(444.380859 0)"/>
       <use xlink:href="#DejaVuSans-69" transform="translate(496.480469 0)"/>
       <use xlink:href="#DejaVuSans-62" transform="translate(524.263672 0)"/>
       <use xlink:href="#DejaVuSans-69" transform="translate(587.740234 0)"/>
       <use xlink:href="#DejaVuSans-6c" transform="translate(615.523438 0)"/>
       <use xlink:href="#DejaVuSans-69" transform="translate(643.306641 0)"/>
       <use xlink:href="#DejaVuSans-74" transform="translate(671.089844 0)"/>
       <use xlink:href="#DejaVuSans-79" transform="translate(710.298828 0)"/>
       <use xlink:href="#DejaVuSans-20" transform="translate(769.478516 0)"/>
       <use xlink:href="#DejaVuSans-54" transform="translate(801.265625 0)"/>
      </g>
     </g>
    </g>
    <g id="xtick_7">
     <g id="line2d_7">
      <g>
       <use xlink:href="#m493d60de8a" x="338.283466" y="339.84" style="stroke: #000000; stroke-width: 1.6"/>
      </g>
     </g>
     <g id="text_7">
      <!-- Electrical Cond. -->
      <g transform="translate(323.213878 460.93256) rotate(-70) scale(0.14 -0.14)">
       <defs>
        <path id="DejaVuSans-45" d="M 628 4666 
L 3578 4666 
L 3578 4134 
L 1259 4134 
L 1259 2753 
L 3481 2753 
L 3481 2222 
L 1259 2222 
L 1259 531 
L 3634 531 
L 3634 0 
L 628 0 
L 628 4666 
z
" transform="scale(0.015625)"/>
        <path id="DejaVuSans-2e" d="M 684 794 
L 1344 794 
L 1344 0 
L 684 0 
L 684 794 
z
" transform="scale(0.015625)"/>
       </defs>
       <use xlink:href="#DejaVuSans-45"/>
       <use xlink:href="#DejaVuSans-6c" transform="translate(63.183594 0)"/>
       <use xlink:href="#DejaVuSans-65" transform="translate(90.966797 0)"/>
       <use xlink:href="#DejaVuSans-63" transform="translate(152.490234 0)"/>
       <use xlink:href="#DejaVuSans-74" transform="translate(207.470703 0)"/>
       <use xlink:href="#DejaVuSans-72" transform="translate(246.679688 0)"/>
       <use xlink:href="#DejaVuSans-69" transform="translate(287.792969 0)"/>
       <use xlink:href="#DejaVuSans-63" transform="translate(315.576172 0)"/>
       <use xlink:href="#DejaVuSans-61" transform="translate(370.556641 0)"/>
       <use xlink:href="#DejaVuSans-6c" transform="translate(431.835938 0)"/>
       <use xlink:href="#DejaVuSans-20" transform="translate(459.619141 0)"/>
       <use xlink:href="#DejaVuSans-43" transform="translate(491.40625 0)"/>
       <use xlink:href="#DejaVuSans-6f" transform="translate(561.230469 0)"/>
       <use xlink:href="#DejaVuSans-6e" transform="translate(622.412109 0)"/>
       <use xlink:href="#DejaVuSans-64" transform="translate(685.791016 0)"/>
       <use xlink:href="#DejaVuSans-2e" transform="translate(749.267578 0)"/>
      </g>
     </g>
    </g>
    <g id="xtick_8">
     <g id="line2d_8">
      <g>
       <use xlink:href="#m493d60de8a" x="376.32892" y="339.84" style="stroke: #000000; stroke-width: 1.6"/>
      </g>
     </g>
     <g id="text_8">
      <!-- Volume Exp. Coeff. -->
      <g transform="translate(357.439182 481.924118) rotate(-70) scale(0.14 -0.14)">
       <defs>
        <path id="DejaVuSans-78" d="M 3513 3500 
L 2247 1797 
L 3578 0 
L 2900 0 
L 1881 1375 
L 863 0 
L 184 0 
L 1544 1831 
L 300 3500 
L 978 3500 
L 1906 2253 
L 2834 3500 
L 3513 3500 
z
" transform="scale(0.015625)"/>
        <path id="DejaVuSans-66" d="M 2375 4863 
L 2375 4384 
L 1825 4384 
Q 1516 4384 1395 4259 
Q 1275 4134 1275 3809 
L 1275 3500 
L 2222 3500 
L 2222 3053 
L 1275 3053 
L 1275 0 
L 697 0 
L 697 3053 
L 147 3053 
L 147 3500 
L 697 3500 
L 697 3744 
Q 697 4328 969 4595 
Q 1241 4863 1831 4863 
L 2375 4863 
z
" transform="scale(0.015625)"/>
       </defs>
       <use xlink:href="#DejaVuSans-56"/>
       <use xlink:href="#DejaVuSans-6f" transform="translate(60.658203 0)"/>
       <use xlink:href="#DejaVuSans-6c" transform="translate(121.839844 0)"/>
       <use xlink:href="#DejaVuSans-75" transform="translate(149.623047 0)"/>
       <use xlink:href="#DejaVuSans-6d" transform="translate(213.001953 0)"/>
       <use xlink:href="#DejaVuSans-65" transform="translate(310.414062 0)"/>
       <use xlink:href="#DejaVuSans-20" transform="translate(371.9375 0)"/>
       <use xlink:href="#DejaVuSans-45" transform="translate(403.724609 0)"/>
       <use xlink:href="#DejaVuSans-78" transform="translate(466.908203 0)"/>
       <use xlink:href="#DejaVuSans-70" transform="translate(526.087891 0)"/>
       <use xlink:href="#DejaVuSans-2e" transform="translate(589.564453 0)"/>
       <use xlink:href="#DejaVuSans-20" transform="translate(621.351562 0)"/>
       <use xlink:href="#DejaVuSans-43" transform="translate(653.138672 0)"/>
       <use xlink:href="#DejaVuSans-6f" transform="translate(722.962891 0)"/>
       <use xlink:href="#DejaVuSans-65" transform="translate(784.144531 0)"/>
       <use xlink:href="#DejaVuSans-66" transform="translate(845.667969 0)"/>
       <use xlink:href="#DejaVuSans-66" transform="translate(880.873047 0)"/>
       <use xlink:href="#DejaVuSans-2e" transform="translate(908.828125 0)"/>
      </g>
     </g>
    </g>
    <g id="xtick_9">
     <g id="line2d_9">
      <g>
       <use xlink:href="#m493d60de8a" x="414.374375" y="339.84" style="stroke: #000000; stroke-width: 1.6"/>
      </g>
     </g>
     <g id="text_9">
      <!-- Refractive Index -->
      <g transform="translate(398.518462 465.253384) rotate(-70) scale(0.14 -0.14)">
       <defs>
        <path id="DejaVuSans-52" d="M 2841 2188 
Q 3044 2119 3236 1894 
Q 3428 1669 3622 1275 
L 4263 0 
L 3584 0 
L 2988 1197 
Q 2756 1666 2539 1819 
Q 2322 1972 1947 1972 
L 1259 1972 
L 1259 0 
L 628 0 
L 628 4666 
L 2053 4666 
Q 2853 4666 3247 4331 
Q 3641 3997 3641 3322 
Q 3641 2881 3436 2590 
Q 3231 2300 2841 2188 
z
M 1259 4147 
L 1259 2491 
L 2053 2491 
Q 2509 2491 2742 2702 
Q 2975 2913 2975 3322 
Q 2975 3731 2742 3939 
Q 2509 4147 2053 4147 
L 1259 4147 
z
" transform="scale(0.015625)"/>
        <path id="DejaVuSans-76" d="M 191 3500 
L 800 3500 
L 1894 563 
L 2988 3500 
L 3597 3500 
L 2284 0 
L 1503 0 
L 191 3500 
z
" transform="scale(0.015625)"/>
        <path id="DejaVuSans-49" d="M 628 4666 
L 1259 4666 
L 1259 0 
L 628 0 
L 628 4666 
z
" transform="scale(0.015625)"/>
       </defs>
       <use xlink:href="#DejaVuSans-52"/>
       <use xlink:href="#DejaVuSans-65" transform="translate(64.982422 0)"/>
       <use xlink:href="#DejaVuSans-66" transform="translate(126.505859 0)"/>
       <use xlink:href="#DejaVuSans-72" transform="translate(161.710938 0)"/>
       <use xlink:href="#DejaVuSans-61" transform="translate(202.824219 0)"/>
       <use xlink:href="#DejaVuSans-63" transform="translate(264.103516 0)"/>
       <use xlink:href="#DejaVuSans-74" transform="translate(319.083984 0)"/>
       <use xlink:href="#DejaVuSans-69" transform="translate(358.292969 0)"/>
       <use xlink:href="#DejaVuSans-76" transform="translate(386.076172 0)"/>
       <use xlink:href="#DejaVuSans-65" transform="translate(445.255859 0)"/>
       <use xlink:href="#DejaVuSans-20" transform="translate(506.779297 0)"/>
       <use xlink:href="#DejaVuSans-49" transform="translate(538.566406 0)"/>
       <use xlink:href="#DejaVuSans-6e" transform="translate(568.058594 0)"/>
       <use xlink:href="#DejaVuSans-64" transform="translate(631.4375 0)"/>
       <use xlink:href="#DejaVuSans-65" transform="translate(694.914062 0)"/>
       <use xlink:href="#DejaVuSans-78" transform="translate(754.6875 0)"/>
      </g>
     </g>
    </g>
    <g id="xtick_10">
     <g id="line2d_10">
      <g>
       <use xlink:href="#m493d60de8a" x="452.41983" y="339.84" style="stroke: #000000; stroke-width: 1.6"/>
      </g>
     </g>
     <g id="text_10">
      <!-- Surface Tension -->
      <g transform="translate(437.227916 461.604734) rotate(-70) scale(0.14 -0.14)">
       <use xlink:href="#DejaVuSans-53"/>
       <use xlink:href="#DejaVuSans-75" transform="translate(63.476562 0)"/>
       <use xlink:href="#DejaVuSans-72" transform="translate(126.855469 0)"/>
       <use xlink:href="#DejaVuSans-66" transform="translate(167.96875 0)"/>
       <use xlink:href="#DejaVuSans-61" transform="translate(203.173828 0)"/>
       <use xlink:href="#DejaVuSans-63" transform="translate(264.453125 0)"/>
       <use xlink:href="#DejaVuSans-65" transform="translate(319.433594 0)"/>
       <use xlink:href="#DejaVuSans-20" transform="translate(380.957031 0)"/>
       <use xlink:href="#DejaVuSans-54" transform="translate(412.744141 0)"/>
       <use xlink:href="#DejaVuSans-65" transform="translate(456.828125 0)"/>
       <use xlink:href="#DejaVuSans-6e" transform="translate(518.351562 0)"/>
       <use xlink:href="#DejaVuSans-73" transform="translate(581.730469 0)"/>
       <use xlink:href="#DejaVuSans-69" transform="translate(633.830078 0)"/>
       <use xlink:href="#DejaVuSans-6f" transform="translate(661.613281 0)"/>
       <use xlink:href="#DejaVuSans-6e" transform="translate(722.794922 0)"/>
      </g>
     </g>
    </g>
    <g id="xtick_11">
     <g id="line2d_11">
      <g>
       <use xlink:href="#m493d60de8a" x="490.465284" y="339.84" style="stroke: #000000; stroke-width: 1.6"/>
      </g>
     </g>
     <g id="text_11">
      <!-- Thermal Cond. -->
      <g transform="translate(476.540395 454.642492) rotate(-70) scale(0.14 -0.14)">
       <defs>
        <path id="DejaVuSans-68" d="M 3513 2113 
L 3513 0 
L 2938 0 
L 2938 2094 
Q 2938 2591 2744 2837 
Q 2550 3084 2163 3084 
Q 1697 3084 1428 2787 
Q 1159 2491 1159 1978 
L 1159 0 
L 581 0 
L 581 4863 
L 1159 4863 
L 1159 2956 
Q 1366 3272 1645 3428 
Q 1925 3584 2291 3584 
Q 2894 3584 3203 3211 
Q 3513 2838 3513 2113 
z
" transform="scale(0.015625)"/>
       </defs>
       <use xlink:href="#DejaVuSans-54"/>
       <use xlink:href="#DejaVuSans-68" transform="translate(61.083984 0)"/>
       <use xlink:href="#DejaVuSans-65" transform="translate(124.462891 0)"/>
       <use xlink:href="#DejaVuSans-72" transform="translate(185.986328 0)"/>
       <use xlink:href="#DejaVuSans-6d" transform="translate(225.349609 0)"/>
       <use xlink:href="#DejaVuSans-61" transform="translate(322.761719 0)"/>
       <use xlink:href="#DejaVuSans-6c" transform="translate(384.041016 0)"/>
       <use xlink:href="#DejaVuSans-20" transform="translate(411.824219 0)"/>
       <use xlink:href="#DejaVuSans-43" transform="translate(443.611328 0)"/>
       <use xlink:href="#DejaVuSans-6f" transform="translate(513.435547 0)"/>
       <use xlink:href="#DejaVuSans-6e" transform="translate(574.617188 0)"/>
       <use xlink:href="#DejaVuSans-64" transform="translate(637.996094 0)"/>
       <use xlink:href="#DejaVuSans-2e" transform="translate(701.472656 0)"/>
      </g>
     </g>
    </g>
    <g id="xtick_12">
     <g id="line2d_12">
      <g>
       <use xlink:href="#m493d60de8a" x="528.510739" y="339.84" style="stroke: #000000; stroke-width: 1.6"/>
      </g>
     </g>
     <g id="text_12">
      <!-- Enthalpy Function -->
      <g transform="translate(510.642625 476.310336) rotate(-70) scale(0.14 -0.14)">
       <defs>
        <path id="DejaVuSans-46" d="M 628 4666 
L 3309 4666 
L 3309 4134 
L 1259 4134 
L 1259 2759 
L 3109 2759 
L 3109 2228 
L 1259 2228 
L 1259 0 
L 628 0 
L 628 4666 
z
" transform="scale(0.015625)"/>
       </defs>
       <use xlink:href="#DejaVuSans-45"/>
       <use xlink:href="#DejaVuSans-6e" transform="translate(63.183594 0)"/>
       <use xlink:href="#DejaVuSans-74" transform="translate(126.5625 0)"/>
       <use xlink:href="#DejaVuSans-68" transform="translate(165.771484 0)"/>
       <use xlink:href="#DejaVuSans-61" transform="translate(229.150391 0)"/>
       <use xlink:href="#DejaVuSans-6c" transform="translate(290.429688 0)"/>
       <use xlink:href="#DejaVuSans-70" transform="translate(318.212891 0)"/>
       <use xlink:href="#DejaVuSans-79" transform="translate(381.689453 0)"/>
       <use xlink:href="#DejaVuSans-20" transform="translate(440.869141 0)"/>
       <use xlink:href="#DejaVuSans-46" transform="translate(472.65625 0)"/>
       <use xlink:href="#DejaVuSans-75" transform="translate(524.675781 0)"/>
       <use xlink:href="#DejaVuSans-6e" transform="translate(588.054688 0)"/>
       <use xlink:href="#DejaVuSans-63" transform="translate(651.433594 0)"/>
       <use xlink:href="#DejaVuSans-74" transform="translate(706.414062 0)"/>
       <use xlink:href="#DejaVuSans-69" transform="translate(745.623047 0)"/>
       <use xlink:href="#DejaVuSans-6f" transform="translate(773.40625 0)"/>
       <use xlink:href="#DejaVuSans-6e" transform="translate(834.587891 0)"/>
      </g>
     </g>
    </g>
    <g id="xtick_13">
     <g id="line2d_13">
      <g>
       <use xlink:href="#m493d60de8a" x="566.556193" y="339.84" style="stroke: #000000; stroke-width: 1.6"/>
      </g>
     </g>
     <g id="text_13">
      <!-- Entropy -->
      <g transform="translate(560.88548 409.286172) rotate(-70) scale(0.14 -0.14)">
       <use xlink:href="#DejaVuSans-45"/>
       <use xlink:href="#DejaVuSans-6e" transform="translate(63.183594 0)"/>
       <use xlink:href="#DejaVuSans-74" transform="translate(126.5625 0)"/>
       <use xlink:href="#DejaVuSans-72" transform="translate(165.771484 0)"/>
       <use xlink:href="#DejaVuSans-6f" transform="translate(204.634766 0)"/>
       <use xlink:href="#DejaVuSans-70" transform="translate(265.816406 0)"/>
       <use xlink:href="#DejaVuSans-79" transform="translate(329.292969 0)"/>
      </g>
     </g>
    </g>
    <g id="xtick_14">
     <g id="line2d_14">
      <g>
       <use xlink:href="#m493d60de8a" x="604.601648" y="339.84" style="stroke: #000000; stroke-width: 1.6"/>
      </g>
     </g>
     <g id="text_14">
      <!-- Enthalpy -->
      <g transform="translate(597.676629 416.178524) rotate(-70) scale(0.14 -0.14)">
       <use xlink:href="#DejaVuSans-45"/>
       <use xlink:href="#DejaVuSans-6e" transform="translate(63.183594 0)"/>
       <use xlink:href="#DejaVuSans-74" transform="translate(126.5625 0)"/>
       <use xlink:href="#DejaVuSans-68" transform="translate(165.771484 0)"/>
       <use xlink:href="#DejaVuSans-61" transform="translate(229.150391 0)"/>
       <use xlink:href="#DejaVuSans-6c" transform="translate(290.429688 0)"/>
       <use xlink:href="#DejaVuSans-70" transform="translate(318.212891 0)"/>
       <use xlink:href="#DejaVuSans-79" transform="translate(381.689453 0)"/>
      </g>
     </g>
    </g>
    <g id="xtick_15">
     <g id="line2d_15">
      <g>
       <use xlink:href="#m493d60de8a" x="642.647102" y="339.84" style="stroke: #000000; stroke-width: 1.6"/>
      </g>
     </g>
     <g id="text_15">
      <!-- Self Diffusion -->
      <g transform="translate(630.409335 445.371837) rotate(-70) scale(0.14 -0.14)">
       <use xlink:href="#DejaVuSans-53"/>
       <use xlink:href="#DejaVuSans-65" transform="translate(63.476562 0)"/>
       <use xlink:href="#DejaVuSans-6c" transform="translate(125 0)"/>
       <use xlink:href="#DejaVuSans-66" transform="translate(152.783203 0)"/>
       <use xlink:href="#DejaVuSans-20" transform="translate(187.988281 0)"/>
       <use xlink:href="#DejaVuSans-44" transform="translate(219.775391 0)"/>
       <use xlink:href="#DejaVuSans-69" transform="translate(296.777344 0)"/>
       <use xlink:href="#DejaVuSans-66" transform="translate(324.560547 0)"/>
       <use xlink:href="#DejaVuSans-66" transform="translate(359.765625 0)"/>
       <use xlink:href="#DejaVuSans-75" transform="translate(394.970703 0)"/>
       <use xlink:href="#DejaVuSans-73" transform="translate(458.349609 0)"/>
       <use xlink:href="#DejaVuSans-69" transform="translate(510.449219 0)"/>
       <use xlink:href="#DejaVuSans-6f" transform="translate(538.232422 0)"/>
       <use xlink:href="#DejaVuSans-6e" transform="translate(599.414062 0)"/>
      </g>
     </g>
    </g>
    <g id="xtick_16">
     <g id="line2d_16">
      <g>
       <use xlink:href="#m493d60de8a" x="680.692557" y="339.84" style="stroke: #000000; stroke-width: 1.6"/>
      </g>
     </g>
     <g id="text_16">
      <!-- Relative Permittivity -->
      <g transform="translate(660.15722 490.966604) rotate(-70) scale(0.14 -0.14)">
       <use xlink:href="#DejaVuSans-52"/>
       <use xlink:href="#DejaVuSans-65" transform="translate(64.982422 0)"/>
       <use xlink:href="#DejaVuSans-6c" transform="translate(126.505859 0)"/>
       <use xlink:href="#DejaVuSans-61" transform="translate(154.289062 0)"/>
       <use xlink:href="#DejaVuSans-74" transform="translate(215.568359 0)"/>
       <use xlink:href="#DejaVuSans-69" transform="translate(254.777344 0)"/>
       <use xlink:href="#DejaVuSans-76" transform="translate(282.560547 0)"/>
       <use xlink:href="#DejaVuSans-65" transform="translate(341.740234 0)"/>
       <use xlink:href="#DejaVuSans-20" transform="translate(403.263672 0)"/>
       <use xlink:href="#DejaVuSans-50" transform="translate(435.050781 0)"/>
       <use xlink:href="#DejaVuSans-65" transform="translate(491.728516 0)"/>
       <use xlink:href="#DejaVuSans-72" transform="translate(553.251953 0)"/>
       <use xlink:href="#DejaVuSans-6d" transform="translate(592.615234 0)"/>
       <use xlink:href="#DejaVuSans-69" transform="translate(690.027344 0)"/>
       <use xlink:href="#DejaVuSans-74" transform="translate(717.810547 0)"/>
       <use xlink:href="#DejaVuSans-74" transform="translate(757.019531 0)"/>
       <use xlink:href="#DejaVuSans-69" transform="translate(796.228516 0)"/>
       <use xlink:href="#DejaVuSans-76" transform="translate(824.011719 0)"/>
       <use xlink:href="#DejaVuSans-69" transform="translate(883.191406 0)"/>
       <use xlink:href="#DejaVuSans-74" transform="translate(910.974609 0)"/>
       <use xlink:href="#DejaVuSans-79" transform="translate(950.183594 0)"/>
      </g>
     </g>
    </g>
    <g id="xtick_17">
     <g id="line2d_17">
      <g>
       <use xlink:href="#m493d60de8a" x="718.738011" y="339.84" style="stroke: #000000; stroke-width: 1.6"/>
      </g>
     </g>
     <g id="text_17">
      <!-- Thermal Diff. -->
      <g transform="translate(706.966353 442.810587) rotate(-70) scale(0.14 -0.14)">
       <use xlink:href="#DejaVuSans-54"/>
       <use xlink:href="#DejaVuSans-68" transform="translate(61.083984 0)"/>
       <use xlink:href="#DejaVuSans-65" transform="translate(124.462891 0)"/>
       <use xlink:href="#DejaVuSans-72" transform="translate(185.986328 0)"/>
       <use xlink:href="#DejaVuSans-6d" transform="translate(225.349609 0)"/>
       <use xlink:href="#DejaVuSans-61" transform="translate(322.761719 0)"/>
       <use xlink:href="#DejaVuSans-6c" transform="translate(384.041016 0)"/>
       <use xlink:href="#DejaVuSans-20" transform="translate(411.824219 0)"/>
       <use xlink:href="#DejaVuSans-44" transform="translate(443.611328 0)"/>
       <use xlink:href="#DejaVuSans-69" transform="translate(520.613281 0)"/>
       <use xlink:href="#DejaVuSans-66" transform="translate(548.396484 0)"/>
       <use xlink:href="#DejaVuSans-66" transform="translate(583.601562 0)"/>
       <use xlink:href="#DejaVuSans-2e" transform="translate(611.556641 0)"/>
      </g>
     </g>
    </g>
    <g id="text_18">
     <!-- Property -->
     <g transform="translate(340.422031 518.523355) scale(0.3 -0.3)">
      <defs>
       <path id="DejaVuSans-Bold-50" d="M 588 4666 
L 2584 4666 
Q 3475 4666 3951 4270 
Q 4428 3875 4428 3144 
Q 4428 2409 3951 2014 
Q 3475 1619 2584 1619 
L 1791 1619 
L 1791 0 
L 588 0 
L 588 4666 
z
M 1791 3794 
L 1791 2491 
L 2456 2491 
Q 2806 2491 2997 2661 
Q 3188 2831 3188 3144 
Q 3188 3456 2997 3625 
Q 2806 3794 2456 3794 
L 1791 3794 
z
" transform="scale(0.015625)"/>
       <path id="DejaVuSans-Bold-72" d="M 3138 2547 
Q 2991 2616 2845 2648 
Q 2700 2681 2553 2681 
Q 2122 2681 1889 2404 
Q 1656 2128 1656 1613 
L 1656 0 
L 538 0 
L 538 3500 
L 1656 3500 
L 1656 2925 
Q 1872 3269 2151 3426 
Q 2431 3584 2822 3584 
Q 2878 3584 2943 3579 
Q 3009 3575 3134 3559 
L 3138 2547 
z
" transform="scale(0.015625)"/>
       <path id="DejaVuSans-Bold-6f" d="M 2203 2784 
Q 1831 2784 1636 2517 
Q 1441 2250 1441 1747 
Q 1441 1244 1636 976 
Q 1831 709 2203 709 
Q 2569 709 2762 976 
Q 2956 1244 2956 1747 
Q 2956 2250 2762 2517 
Q 2569 2784 2203 2784 
z
M 2203 3584 
Q 3106 3584 3614 3096 
Q 4122 2609 4122 1747 
Q 4122 884 3614 396 
Q 3106 -91 2203 -91 
Q 1297 -91 786 396 
Q 275 884 275 1747 
Q 275 2609 786 3096 
Q 1297 3584 2203 3584 
z
" transform="scale(0.015625)"/>
       <path id="DejaVuSans-Bold-70" d="M 1656 506 
L 1656 -1331 
L 538 -1331 
L 538 3500 
L 1656 3500 
L 1656 2988 
Q 1888 3294 2169 3439 
Q 2450 3584 2816 3584 
Q 3463 3584 3878 3070 
Q 4294 2556 4294 1747 
Q 4294 938 3878 423 
Q 3463 -91 2816 -91 
Q 2450 -91 2169 54 
Q 1888 200 1656 506 
z
M 2400 2772 
Q 2041 2772 1848 2508 
Q 1656 2244 1656 1747 
Q 1656 1250 1848 986 
Q 2041 722 2400 722 
Q 2759 722 2948 984 
Q 3138 1247 3138 1747 
Q 3138 2247 2948 2509 
Q 2759 2772 2400 2772 
z
" transform="scale(0.015625)"/>
       <path id="DejaVuSans-Bold-65" d="M 4031 1759 
L 4031 1441 
L 1416 1441 
Q 1456 1047 1700 850 
Q 1944 653 2381 653 
Q 2734 653 3104 758 
Q 3475 863 3866 1075 
L 3866 213 
Q 3469 63 3072 -14 
Q 2675 -91 2278 -91 
Q 1328 -91 801 392 
Q 275 875 275 1747 
Q 275 2603 792 3093 
Q 1309 3584 2216 3584 
Q 3041 3584 3536 3087 
Q 4031 2591 4031 1759 
z
M 2881 2131 
Q 2881 2450 2695 2645 
Q 2509 2841 2209 2841 
Q 1884 2841 1681 2658 
Q 1478 2475 1428 2131 
L 2881 2131 
z
" transform="scale(0.015625)"/>
       <path id="DejaVuSans-Bold-74" d="M 1759 4494 
L 1759 3500 
L 2913 3500 
L 2913 2700 
L 1759 2700 
L 1759 1216 
Q 1759 972 1856 886 
Q 1953 800 2241 800 
L 2816 800 
L 2816 0 
L 1856 0 
Q 1194 0 917 276 
Q 641 553 641 1216 
L 641 2700 
L 84 2700 
L 84 3500 
L 641 3500 
L 641 4494 
L 1759 4494 
z
" transform="scale(0.015625)"/>
       <path id="DejaVuSans-Bold-79" d="M 78 3500 
L 1197 3500 
L 2138 1125 
L 2938 3500 
L 4056 3500 
L 2584 -331 
Q 2363 -916 2067 -1148 
Q 1772 -1381 1288 -1381 
L 641 -1381 
L 641 -647 
L 991 -647 
Q 1275 -647 1404 -556 
Q 1534 -466 1606 -231 
L 1638 -134 
L 78 3500 
z
" transform="scale(0.015625)"/>
      </defs>
      <use xlink:href="#DejaVuSans-Bold-50"/>
      <use xlink:href="#DejaVuSans-Bold-72" transform="translate(73.291016 0)"/>
      <use xlink:href="#DejaVuSans-Bold-6f" transform="translate(122.607422 0)"/>
      <use xlink:href="#DejaVuSans-Bold-70" transform="translate(191.308594 0)"/>
      <use xlink:href="#DejaVuSans-Bold-65" transform="translate(262.890625 0)"/>
      <use xlink:href="#DejaVuSans-Bold-72" transform="translate(330.712891 0)"/>
      <use xlink:href="#DejaVuSans-Bold-74" transform="translate(380.029297 0)"/>
      <use xlink:href="#DejaVuSans-Bold-79" transform="translate(427.832031 0)"/>
     </g>
    </g>
   </g>
   <g id="matplotlib.axis_2">
    <g id="ytick_1">
     <g id="line2d_18">
      <defs>
       <path id="m3025f1509d" d="M 0 0 
L -3.5 0 
" style="stroke: #000000; stroke-width: 1.6"/>
      </defs>
      <g>
       <use xlink:href="#m3025f1509d" x="79.574375" y="324.72" style="stroke: #000000; stroke-width: 1.6"/>
      </g>
     </g>
     <g id="text_19">
      <!-- $\mathdefault{10^{0}}$ -->
      <g transform="translate(40.234375 330.038906) scale(0.14 -0.14)">
       <defs>
        <path id="DejaVuSans-31" d="M 794 531 
L 1825 531 
L 1825 4091 
L 703 3866 
L 703 4441 
L 1819 4666 
L 2450 4666 
L 2450 531 
L 3481 531 
L 3481 0 
L 794 0 
L 794 531 
z
" transform="scale(0.015625)"/>
        <path id="DejaVuSans-30" d="M 2034 4250 
Q 1547 4250 1301 3770 
Q 1056 3291 1056 2328 
Q 1056 1369 1301 889 
Q 1547 409 2034 409 
Q 2525 409 2770 889 
Q 3016 1369 3016 2328 
Q 3016 3291 2770 3770 
Q 2525 4250 2034 4250 
z
M 2034 4750 
Q 2819 4750 3233 4129 
Q 3647 3509 3647 2328 
Q 3647 1150 3233 529 
Q 2819 -91 2034 -91 
Q 1250 -91 836 529 
Q 422 1150 422 2328 
Q 422 3509 836 4129 
Q 1250 4750 2034 4750 
z
" transform="scale(0.015625)"/>
       </defs>
       <use xlink:href="#DejaVuSans-31" transform="translate(0 0.765625)"/>
       <use xlink:href="#DejaVuSans-30" transform="translate(63.623047 0.765625)"/>
       <use xlink:href="#DejaVuSans-30" transform="translate(128.203125 39.046875) scale(0.7)"/>
      </g>
     </g>
    </g>
    <g id="ytick_2">
     <g id="line2d_19">
      <g>
       <use xlink:href="#m3025f1509d" x="79.574375" y="241.360778" style="stroke: #000000; stroke-width: 1.6"/>
      </g>
     </g>
     <g id="text_20">
      <!-- $\mathdefault{10^{1}}$ -->
      <g transform="translate(40.234375 246.679685) scale(0.14 -0.14)">
       <use xlink:href="#DejaVuSans-31" transform="translate(0 0.684375)"/>
       <use xlink:href="#DejaVuSans-30" transform="translate(63.623047 0.684375)"/>
       <use xlink:href="#DejaVuSans-31" transform="translate(128.203125 38.965625) scale(0.7)"/>
      </g>
     </g>
    </g>
    <g id="ytick_3">
     <g id="line2d_20">
      <g>
       <use xlink:href="#m3025f1509d" x="79.574375" y="158.001557" style="stroke: #000000; stroke-width: 1.6"/>
      </g>
     </g>
     <g id="text_21">
      <!-- $\mathdefault{10^{2}}$ -->
      <g transform="translate(40.234375 163.320463) scale(0.14 -0.14)">
       <defs>
        <path id="DejaVuSans-32" d="M 1228 531 
L 3431 531 
L 3431 0 
L 469 0 
L 469 531 
Q 828 903 1448 1529 
Q 2069 2156 2228 2338 
Q 2531 2678 2651 2914 
Q 2772 3150 2772 3378 
Q 2772 3750 2511 3984 
Q 2250 4219 1831 4219 
Q 1534 4219 1204 4116 
Q 875 4013 500 3803 
L 500 4441 
Q 881 4594 1212 4672 
Q 1544 4750 1819 4750 
Q 2544 4750 2975 4387 
Q 3406 4025 3406 3419 
Q 3406 3131 3298 2873 
Q 3191 2616 2906 2266 
Q 2828 2175 2409 1742 
Q 1991 1309 1228 531 
z
" transform="scale(0.015625)"/>
       </defs>
       <use xlink:href="#DejaVuSans-31" transform="translate(0 0.765625)"/>
       <use xlink:href="#DejaVuSans-30" transform="translate(63.623047 0.765625)"/>
       <use xlink:href="#DejaVuSans-32" transform="translate(128.203125 39.046875) scale(0.7)"/>
      </g>
     </g>
    </g>
    <g id="ytick_4">
     <g id="line2d_21">
      <g>
       <use xlink:href="#m3025f1509d" x="79.574375" y="74.642335" style="stroke: #000000; stroke-width: 1.6"/>
      </g>
     </g>
     <g id="text_22">
      <!-- $\mathdefault{10^{3}}$ -->
      <g transform="translate(40.234375 79.961242) scale(0.14 -0.14)">
       <defs>
        <path id="DejaVuSans-33" d="M 2597 2516 
Q 3050 2419 3304 2112 
Q 3559 1806 3559 1356 
Q 3559 666 3084 287 
Q 2609 -91 1734 -91 
Q 1441 -91 1130 -33 
Q 819 25 488 141 
L 488 750 
Q 750 597 1062 519 
Q 1375 441 1716 441 
Q 2309 441 2620 675 
Q 2931 909 2931 1356 
Q 2931 1769 2642 2001 
Q 2353 2234 1838 2234 
L 1294 2234 
L 1294 2753 
L 1863 2753 
Q 2328 2753 2575 2939 
Q 2822 3125 2822 3475 
Q 2822 3834 2567 4026 
Q 2313 4219 1838 4219 
Q 1578 4219 1281 4162 
Q 984 4106 628 3988 
L 628 4550 
Q 988 4650 1302 4700 
Q 1616 4750 1894 4750 
Q 2613 4750 3031 4423 
Q 3450 4097 3450 3541 
Q 3450 3153 3228 2886 
Q 3006 2619 2597 2516 
z
" transform="scale(0.015625)"/>
       </defs>
       <use xlink:href="#DejaVuSans-31" transform="translate(0 0.765625)"/>
       <use xlink:href="#DejaVuSans-30" transform="translate(63.623047 0.765625)"/>
       <use xlink:href="#DejaVuSans-33" transform="translate(128.203125 39.046875) scale(0.7)"/>
      </g>
     </g>
    </g>
    <g id="ytick_5">
     <g id="line2d_22">
      <defs>
       <path id="mdfac917f91" d="M 0 0 
L -2 0 
" style="stroke: #000000; stroke-width: 0.8"/>
      </defs>
      <g>
       <use xlink:href="#mdfac917f91" x="79.574375" y="337.632507" style="stroke: #000000; stroke-width: 0.8"/>
      </g>
     </g>
    </g>
    <g id="ytick_6">
     <g id="line2d_23">
      <g>
       <use xlink:href="#mdfac917f91" x="79.574375" y="332.798343" style="stroke: #000000; stroke-width: 0.8"/>
      </g>
     </g>
    </g>
    <g id="ytick_7">
     <g id="line2d_24">
      <g>
       <use xlink:href="#mdfac917f91" x="79.574375" y="328.534309" style="stroke: #000000; stroke-width: 0.8"/>
      </g>
     </g>
    </g>
    <g id="ytick_8">
     <g id="line2d_25">
      <g>
       <use xlink:href="#mdfac917f91" x="79.574375" y="299.626374" style="stroke: #000000; stroke-width: 0.8"/>
      </g>
     </g>
    </g>
    <g id="ytick_9">
     <g id="line2d_26">
      <g>
       <use xlink:href="#mdfac917f91" x="79.574375" y="284.947544" style="stroke: #000000; stroke-width: 0.8"/>
      </g>
     </g>
    </g>
    <g id="ytick_10">
     <g id="line2d_27">
      <g>
       <use xlink:href="#mdfac917f91" x="79.574375" y="274.532748" style="stroke: #000000; stroke-width: 0.8"/>
      </g>
     </g>
    </g>
    <g id="ytick_11">
     <g id="line2d_28">
      <g>
       <use xlink:href="#mdfac917f91" x="79.574375" y="266.454405" style="stroke: #000000; stroke-width: 0.8"/>
      </g>
     </g>
    </g>
    <g id="ytick_12">
     <g id="line2d_29">
      <g>
       <use xlink:href="#mdfac917f91" x="79.574375" y="259.853918" style="stroke: #000000; stroke-width: 0.8"/>
      </g>
     </g>
    </g>
    <g id="ytick_13">
     <g id="line2d_30">
      <g>
       <use xlink:href="#mdfac917f91" x="79.574375" y="254.273285" style="stroke: #000000; stroke-width: 0.8"/>
      </g>
     </g>
    </g>
    <g id="ytick_14">
     <g id="line2d_31">
      <g>
       <use xlink:href="#mdfac917f91" x="79.574375" y="249.439122" style="stroke: #000000; stroke-width: 0.8"/>
      </g>
     </g>
    </g>
    <g id="ytick_15">
     <g id="line2d_32">
      <g>
       <use xlink:href="#mdfac917f91" x="79.574375" y="245.175087" style="stroke: #000000; stroke-width: 0.8"/>
      </g>
     </g>
    </g>
    <g id="ytick_16">
     <g id="line2d_33">
      <g>
       <use xlink:href="#mdfac917f91" x="79.574375" y="216.267152" style="stroke: #000000; stroke-width: 0.8"/>
      </g>
     </g>
    </g>
    <g id="ytick_17">
     <g id="line2d_34">
      <g>
       <use xlink:href="#mdfac917f91" x="79.574375" y="201.588322" style="stroke: #000000; stroke-width: 0.8"/>
      </g>
     </g>
    </g>
    <g id="ytick_18">
     <g id="line2d_35">
      <g>
       <use xlink:href="#mdfac917f91" x="79.574375" y="191.173526" style="stroke: #000000; stroke-width: 0.8"/>
      </g>
     </g>
    </g>
    <g id="ytick_19">
     <g id="line2d_36">
      <g>
       <use xlink:href="#mdfac917f91" x="79.574375" y="183.095183" style="stroke: #000000; stroke-width: 0.8"/>
      </g>
     </g>
    </g>
    <g id="ytick_20">
     <g id="line2d_37">
      <g>
       <use xlink:href="#mdfac917f91" x="79.574375" y="176.494696" style="stroke: #000000; stroke-width: 0.8"/>
      </g>
     </g>
    </g>
    <g id="ytick_21">
     <g id="line2d_38">
      <g>
       <use xlink:href="#mdfac917f91" x="79.574375" y="170.914064" style="stroke: #000000; stroke-width: 0.8"/>
      </g>
     </g>
    </g>
    <g id="ytick_22">
     <g id="line2d_39">
      <g>
       <use xlink:href="#mdfac917f91" x="79.574375" y="166.0799" style="stroke: #000000; stroke-width: 0.8"/>
      </g>
     </g>
    </g>
    <g id="ytick_23">
     <g id="line2d_40">
      <g>
       <use xlink:href="#mdfac917f91" x="79.574375" y="161.815866" style="stroke: #000000; stroke-width: 0.8"/>
      </g>
     </g>
    </g>
    <g id="ytick_24">
     <g id="line2d_41">
      <g>
       <use xlink:href="#mdfac917f91" x="79.574375" y="132.907931" style="stroke: #000000; stroke-width: 0.8"/>
      </g>
     </g>
    </g>
    <g id="ytick_25">
     <g id="line2d_42">
      <g>
       <use xlink:href="#mdfac917f91" x="79.574375" y="118.2291" style="stroke: #000000; stroke-width: 0.8"/>
      </g>
     </g>
    </g>
    <g id="ytick_26">
     <g id="line2d_43">
      <g>
       <use xlink:href="#mdfac917f91" x="79.574375" y="107.814305" style="stroke: #000000; stroke-width: 0.8"/>
      </g>
     </g>
    </g>
    <g id="ytick_27">
     <g id="line2d_44">
      <g>
       <use xlink:href="#mdfac917f91" x="79.574375" y="99.735961" style="stroke: #000000; stroke-width: 0.8"/>
      </g>
     </g>
    </g>
    <g id="ytick_28">
     <g id="line2d_45">
      <g>
       <use xlink:href="#mdfac917f91" x="79.574375" y="93.135474" style="stroke: #000000; stroke-width: 0.8"/>
      </g>
     </g>
    </g>
    <g id="ytick_29">
     <g id="line2d_46">
      <g>
       <use xlink:href="#mdfac917f91" x="79.574375" y="87.554842" style="stroke: #000000; stroke-width: 0.8"/>
      </g>
     </g>
    </g>
    <g id="ytick_30">
     <g id="line2d_47">
      <g>
       <use xlink:href="#mdfac917f91" x="79.574375" y="82.720679" style="stroke: #000000; stroke-width: 0.8"/>
      </g>
     </g>
    </g>
    <g id="ytick_31">
     <g id="line2d_48">
      <g>
       <use xlink:href="#mdfac917f91" x="79.574375" y="78.456644" style="stroke: #000000; stroke-width: 0.8"/>
      </g>
     </g>
    </g>
    <g id="ytick_32">
     <g id="line2d_49">
      <g>
       <use xlink:href="#mdfac917f91" x="79.574375" y="49.548709" style="stroke: #000000; stroke-width: 0.8"/>
      </g>
     </g>
    </g>
    <g id="ytick_33">
     <g id="line2d_50">
      <g>
       <use xlink:href="#mdfac917f91" x="79.574375" y="34.869879" style="stroke: #000000; stroke-width: 0.8"/>
      </g>
     </g>
    </g>
    <g id="ytick_34">
     <g id="line2d_51">
      <g>
       <use xlink:href="#mdfac917f91" x="79.574375" y="24.455083" style="stroke: #000000; stroke-width: 0.8"/>
      </g>
     </g>
    </g>
    <g id="ytick_35">
     <g id="line2d_52">
      <g>
       <use xlink:href="#mdfac917f91" x="79.574375" y="16.37674" style="stroke: #000000; stroke-width: 0.8"/>
      </g>
     </g>
    </g>
    <g id="ytick_36">
     <g id="line2d_53">
      <g>
       <use xlink:href="#mdfac917f91" x="79.574375" y="9.776253" style="stroke: #000000; stroke-width: 0.8"/>
      </g>
     </g>
    </g>
    <g id="text_23">
     <!-- Publications -->
     <g transform="translate(29.995312 277.45125) rotate(-90) scale(0.3 -0.3)">
      <defs>
       <path id="DejaVuSans-Bold-75" d="M 500 1363 
L 500 3500 
L 1625 3500 
L 1625 3150 
Q 1625 2866 1622 2436 
Q 1619 2006 1619 1863 
Q 1619 1441 1641 1255 
Q 1663 1069 1716 984 
Q 1784 875 1895 815 
Q 2006 756 2150 756 
Q 2500 756 2700 1025 
Q 2900 1294 2900 1772 
L 2900 3500 
L 4019 3500 
L 4019 0 
L 2900 0 
L 2900 506 
Q 2647 200 2364 54 
Q 2081 -91 1741 -91 
Q 1134 -91 817 281 
Q 500 653 500 1363 
z
" transform="scale(0.015625)"/>
       <path id="DejaVuSans-Bold-62" d="M 2400 722 
Q 2759 722 2948 984 
Q 3138 1247 3138 1747 
Q 3138 2247 2948 2509 
Q 2759 2772 2400 2772 
Q 2041 2772 1848 2508 
Q 1656 2244 1656 1747 
Q 1656 1250 1848 986 
Q 2041 722 2400 722 
z
M 1656 2988 
Q 1888 3294 2169 3439 
Q 2450 3584 2816 3584 
Q 3463 3584 3878 3070 
Q 4294 2556 4294 1747 
Q 4294 938 3878 423 
Q 3463 -91 2816 -91 
Q 2450 -91 2169 54 
Q 1888 200 1656 506 
L 1656 0 
L 538 0 
L 538 4863 
L 1656 4863 
L 1656 2988 
z
" transform="scale(0.015625)"/>
       <path id="DejaVuSans-Bold-6c" d="M 538 4863 
L 1656 4863 
L 1656 0 
L 538 0 
L 538 4863 
z
" transform="scale(0.015625)"/>
       <path id="DejaVuSans-Bold-69" d="M 538 3500 
L 1656 3500 
L 1656 0 
L 538 0 
L 538 3500 
z
M 538 4863 
L 1656 4863 
L 1656 3950 
L 538 3950 
L 538 4863 
z
" transform="scale(0.015625)"/>
       <path id="DejaVuSans-Bold-63" d="M 3366 3391 
L 3366 2478 
Q 3138 2634 2908 2709 
Q 2678 2784 2431 2784 
Q 1963 2784 1702 2511 
Q 1441 2238 1441 1747 
Q 1441 1256 1702 982 
Q 1963 709 2431 709 
Q 2694 709 2930 787 
Q 3166 866 3366 1019 
L 3366 103 
Q 3103 6 2833 -42 
Q 2563 -91 2291 -91 
Q 1344 -91 809 395 
Q 275 881 275 1747 
Q 275 2613 809 3098 
Q 1344 3584 2291 3584 
Q 2566 3584 2833 3536 
Q 3100 3488 3366 3391 
z
" transform="scale(0.015625)"/>
       <path id="DejaVuSans-Bold-61" d="M 2106 1575 
Q 1756 1575 1579 1456 
Q 1403 1338 1403 1106 
Q 1403 894 1545 773 
Q 1688 653 1941 653 
Q 2256 653 2472 879 
Q 2688 1106 2688 1447 
L 2688 1575 
L 2106 1575 
z
M 3816 1997 
L 3816 0 
L 2688 0 
L 2688 519 
Q 2463 200 2181 54 
Q 1900 -91 1497 -91 
Q 953 -91 614 226 
Q 275 544 275 1050 
Q 275 1666 698 1953 
Q 1122 2241 2028 2241 
L 2688 2241 
L 2688 2328 
Q 2688 2594 2478 2717 
Q 2269 2841 1825 2841 
Q 1466 2841 1156 2769 
Q 847 2697 581 2553 
L 581 3406 
Q 941 3494 1303 3539 
Q 1666 3584 2028 3584 
Q 2975 3584 3395 3211 
Q 3816 2838 3816 1997 
z
" transform="scale(0.015625)"/>
       <path id="DejaVuSans-Bold-6e" d="M 4056 2131 
L 4056 0 
L 2931 0 
L 2931 347 
L 2931 1631 
Q 2931 2084 2911 2256 
Q 2891 2428 2841 2509 
Q 2775 2619 2662 2680 
Q 2550 2741 2406 2741 
Q 2056 2741 1856 2470 
Q 1656 2200 1656 1722 
L 1656 0 
L 538 0 
L 538 3500 
L 1656 3500 
L 1656 2988 
Q 1909 3294 2193 3439 
Q 2478 3584 2822 3584 
Q 3428 3584 3742 3212 
Q 4056 2841 4056 2131 
z
" transform="scale(0.015625)"/>
       <path id="DejaVuSans-Bold-73" d="M 3272 3391 
L 3272 2541 
Q 2913 2691 2578 2766 
Q 2244 2841 1947 2841 
Q 1628 2841 1473 2761 
Q 1319 2681 1319 2516 
Q 1319 2381 1436 2309 
Q 1553 2238 1856 2203 
L 2053 2175 
Q 2913 2066 3209 1816 
Q 3506 1566 3506 1031 
Q 3506 472 3093 190 
Q 2681 -91 1863 -91 
Q 1516 -91 1145 -36 
Q 775 19 384 128 
L 384 978 
Q 719 816 1070 734 
Q 1422 653 1784 653 
Q 2113 653 2278 743 
Q 2444 834 2444 1013 
Q 2444 1163 2330 1236 
Q 2216 1309 1875 1350 
L 1678 1375 
Q 931 1469 631 1722 
Q 331 1975 331 2491 
Q 331 3047 712 3315 
Q 1094 3584 1881 3584 
Q 2191 3584 2531 3537 
Q 2872 3491 3272 3391 
z
" transform="scale(0.015625)"/>
      </defs>
      <use xlink:href="#DejaVuSans-Bold-50"/>
      <use xlink:href="#DejaVuSans-Bold-75" transform="translate(73.291016 0)"/>
      <use xlink:href="#DejaVuSans-Bold-62" transform="translate(144.482422 0)"/>
      <use xlink:href="#DejaVuSans-Bold-6c" transform="translate(216.064453 0)"/>
      <use xlink:href="#DejaVuSans-Bold-69" transform="translate(250.341797 0)"/>
      <use xlink:href="#DejaVuSans-Bold-63" transform="translate(284.619141 0)"/>
      <use xlink:href="#DejaVuSans-Bold-61" transform="translate(343.896484 0)"/>
      <use xlink:href="#DejaVuSans-Bold-74" transform="translate(411.376953 0)"/>
      <use xlink:href="#DejaVuSans-Bold-69" transform="translate(459.179688 0)"/>
      <use xlink:href="#DejaVuSans-Bold-6f" transform="translate(493.457031 0)"/>
      <use xlink:href="#DejaVuSans-Bold-6e" transform="translate(562.158203 0)"/>
      <use xlink:href="#DejaVuSans-Bold-73" transform="translate(633.349609 0)"/>
     </g>
    </g>
   </g>
   <g id="line2d_54">
    <defs>
     <path id="m637dffea77" d="M 0 5.6 
C 1.485137 5.6 2.909647 5.009949 3.959798 3.959798 
C 5.009949 2.909647 5.6 1.485137 5.6 0 
C 5.6 -1.485137 5.009949 -2.909647 3.959798 -3.959798 
C 2.909647 -5.009949 1.485137 -5.6 0 -5.6 
C -1.485137 -5.6 -2.909647 -5.009949 -3.959798 -3.959798 
C -5.009949 -2.909647 -5.6 -1.485137 -5.6 0 
C -5.6 1.485137 -5.009949 2.909647 -3.959798 3.959798 
C -2.909647 5.009949 -1.485137 5.6 0 5.6 
z
"/>
    </defs>
    <g clip-path="url(#pa18bf1b6a8)">
     <use xlink:href="#m637dffea77" x="110.010739" y="88.39193"/>
     <use xlink:href="#m637dffea77" x="148.056193" y="38.778168"/>
     <use xlink:href="#m637dffea77" x="186.101648" y="22.32"/>
     <use xlink:href="#m637dffea77" x="224.147102" y="299.626374"/>
     <use xlink:href="#m637dffea77" x="262.192557" y="96.749215"/>
     <use xlink:href="#m637dffea77" x="300.238011" y="266.454405"/>
     <use xlink:href="#m637dffea77" x="338.283466" y="69.456908"/>
     <use xlink:href="#m637dffea77" x="376.32892" y="208.188809"/>
     <use xlink:href="#m637dffea77" x="414.374375" y="66.506114"/>
     <use xlink:href="#m637dffea77" x="452.41983" y="86.63569"/>
     <use xlink:href="#m637dffea77" x="490.465284" y="148.225913"/>
     <use xlink:href="#m637dffea77" x="528.510739" y="218.124095"/>
     <use xlink:href="#m637dffea77" x="566.556193" y="212.81669"/>
     <use xlink:href="#m637dffea77" x="604.601648" y="234.760291"/>
     <use xlink:href="#m637dffea77" x="642.647102" y="183.095183"/>
     <use xlink:href="#m637dffea77" x="680.692557" y="154.551095"/>
     <use xlink:href="#m637dffea77" x="718.738011" y="254.273285"/>
    </g>
   </g>
   <g id="line2d_55">
    <defs>
     <path id="mf1e016e37c" d="M 0 5.6 
C 1.485137 5.6 2.909647 5.009949 3.959798 3.959798 
C 5.009949 2.909647 5.6 1.485137 5.6 0 
C 5.6 -1.485137 5.009949 -2.909647 3.959798 -3.959798 
C 2.909647 -5.009949 1.485137 -5.6 0 -5.6 
C -1.485137 -5.6 -2.909647 -5.009949 -3.959798 -3.959798 
C -5.009949 -2.909647 -5.6 -1.485137 -5.6 0 
C -5.6 1.485137 -5.009949 2.909647 -3.959798 3.959798 
C -2.909647 5.009949 -1.485137 5.6 0 5.6 
z
"/>
    </defs>
    <g clip-path="url(#pa18bf1b6a8)">
     <use xlink:href="#mf1e016e37c" x="110.010739" y="142.369976" style="fill: #ff0000"/>
     <use xlink:href="#mf1e016e37c" x="148.056193" y="56.469188" style="fill: #ff0000"/>
     <use xlink:href="#mf1e016e37c" x="186.101648" y="34.188485" style="fill: #ff0000"/>
     <use xlink:href="#mf1e016e37c" x="203.514365" y="38319.16903" style="fill: #ff0000"/>
     <use xlink:href="#mf1e016e37c" x="244.791896" y="38319.16903" style="fill: #ff0000"/>
     <use xlink:href="#mf1e016e37c" x="262.192557" y="83.038844" style="fill: #ff0000"/>
     <use xlink:href="#mf1e016e37c" x="279.593218" y="38319.16903" style="fill: #ff0000"/>
     <use xlink:href="#mf1e016e37c" x="320.879711" y="38319.16903" style="fill: #ff0000"/>
     <use xlink:href="#mf1e016e37c" x="338.283466" y="70.50725" style="fill: #ff0000"/>
     <use xlink:href="#mf1e016e37c" x="376.32892" y="254.273285" style="fill: #ff0000"/>
     <use xlink:href="#mf1e016e37c" x="414.374375" y="87.143446" style="fill: #ff0000"/>
     <use xlink:href="#mf1e016e37c" x="452.41983" y="109.292161" style="fill: #ff0000"/>
     <use xlink:href="#mf1e016e37c" x="490.465284" y="199.251869" style="fill: #ff0000"/>
     <use xlink:href="#mf1e016e37c" x="507.837207" y="38319.16903" style="fill: #ff0000"/>
     <use xlink:href="#mf1e016e37c" x="587.254611" y="38319.16903" style="fill: #ff0000"/>
     <use xlink:href="#mf1e016e37c" x="604.601648" y="299.626374" style="fill: #ff0000"/>
     <use xlink:href="#mf1e016e37c" x="621.948685" y="38319.16903" style="fill: #ff0000"/>
     <use xlink:href="#mf1e016e37c" x="663.332012" y="38319.16903" style="fill: #ff0000"/>
     <use xlink:href="#mf1e016e37c" x="680.692557" y="245.175087" style="fill: #ff0000"/>
     <use xlink:href="#mf1e016e37c" x="718.738011" y="324.72" style="fill: #ff0000"/>
    </g>
   </g>
   <g id="line2d_56">
    <defs>
     <path id="ma9ace8ad8b" d="M 0 5.6 
C 1.485137 5.6 2.909647 5.009949 3.959798 3.959798 
C 5.009949 2.909647 5.6 1.485137 5.6 0 
C 5.6 -1.485137 5.009949 -2.909647 3.959798 -3.959798 
C 2.909647 -5.009949 1.485137 -5.6 0 -5.6 
C -1.485137 -5.6 -2.909647 -5.009949 -3.959798 -3.959798 
C -5.009949 -2.909647 -5.6 -1.485137 -5.6 0 
C -5.6 1.485137 -5.009949 2.909647 -3.959798 3.959798 
C -2.909647 5.009949 -1.485137 5.6 0 5.6 
z
"/>
    </defs>
    <g clip-path="url(#pa18bf1b6a8)">
     <use xlink:href="#ma9ace8ad8b" x="110.010739" y="199.251869" style="fill: #0000ff"/>
     <use xlink:href="#ma9ace8ad8b" x="148.056193" y="106.047981" style="fill: #0000ff"/>
     <use xlink:href="#ma9ace8ad8b" x="186.101648" y="76.044848" style="fill: #0000ff"/>
     <use xlink:href="#ma9ace8ad8b" x="203.504036" y="38319.16903" style="fill: #0000ff"/>
     <use xlink:href="#ma9ace8ad8b" x="244.798786" y="38319.16903" style="fill: #0000ff"/>
     <use xlink:href="#ma9ace8ad8b" x="262.192557" y="110.931433" style="fill: #0000ff"/>
     <use xlink:href="#ma9ace8ad8b" x="279.586327" y="38319.16903" style="fill: #0000ff"/>
     <use xlink:href="#ma9ace8ad8b" x="320.890592" y="38319.16903" style="fill: #0000ff"/>
     <use xlink:href="#ma9ace8ad8b" x="338.283466" y="114.559892" style="fill: #0000ff"/>
     <use xlink:href="#ma9ace8ad8b" x="355.67634" y="38319.16903" style="fill: #0000ff"/>
     <use xlink:href="#ma9ace8ad8b" x="396.987283" y="38319.16903" style="fill: #0000ff"/>
     <use xlink:href="#ma9ace8ad8b" x="414.374375" y="137.949559" style="fill: #0000ff"/>
     <use xlink:href="#ma9ace8ad8b" x="452.41983" y="161.415835" style="fill: #0000ff"/>
     <use xlink:href="#ma9ace8ad8b" x="490.465284" y="284.947544" style="fill: #0000ff"/>
     <use xlink:href="#ma9ace8ad8b" x="507.815964" y="38319.16903" style="fill: #0000ff"/>
     <use xlink:href="#ma9ace8ad8b" x="701.397205" y="38319.16903" style="fill: #0000ff"/>
     <use xlink:href="#ma9ace8ad8b" x="718.738011" y="324.72" style="fill: #0000ff"/>
    </g>
   </g>
   <g id="patch_3">
    <path d="M 79.574375 339.84 
L 79.574375 7.2 
" style="fill: none; stroke: #000000; stroke-width: 0.8; stroke-linejoin: miter; stroke-linecap: square"/>
   </g>
   <g id="patch_4">
    <path d="M 749.174375 339.84 
L 749.174375 7.2 
" style="fill: none; stroke: #000000; stroke-width: 0.8; stroke-linejoin: miter; stroke-linecap: square"/>
   </g>
   <g id="patch_5">
    <path d="M 79.574375 339.84 
L 749.174375 339.84 
" style="fill: none; stroke: #000000; stroke-width: 0.8; stroke-linejoin: miter; stroke-linecap: square"/>
   </g>
   <g id="patch_6">
    <path d="M 79.574375 7.2 
L 749.174375 7.2 
" style="fill: none; stroke: #000000; stroke-width: 0.8; stroke-linejoin: miter; stroke-linecap: square"/>
   </g>
   <g id="legend_1">
    <g id="patch_7">
     <path d="M 505.17125 111.26875 
L 735.174375 111.26875 
Q 739.174375 111.26875 739.174375 107.26875 
L 739.174375 21.2 
Q 739.174375 17.2 735.174375 17.2 
L 505.17125 17.2 
Q 501.17125 17.2 501.17125 21.2 
L 501.17125 107.26875 
Q 501.17125 111.26875 505.17125 111.26875 
z
" style="fill: #ffffff; opacity: 0.8; stroke: #cccccc; stroke-width: 0.48; stroke-linejoin: miter"/>
    </g>
    <g id="line2d_57">
     <g>
      <use xlink:href="#m637dffea77" x="529.17125" y="33.396875"/>
     </g>
    </g>
    <g id="text_24">
     <!-- Pure ILs -->
     <g transform="translate(565.17125 40.396875) scale(0.2 -0.2)">
      <defs>
       <path id="DejaVuSans-4c" d="M 628 4666 
L 1259 4666 
L 1259 531 
L 3531 531 
L 3531 0 
L 628 0 
L 628 4666 
z
" transform="scale(0.015625)"/>
      </defs>
      <use xlink:href="#DejaVuSans-50"/>
      <use xlink:href="#DejaVuSans-75" transform="translate(58.552734 0)"/>
      <use xlink:href="#DejaVuSans-72" transform="translate(121.931641 0)"/>
      <use xlink:href="#DejaVuSans-65" transform="translate(160.794922 0)"/>
      <use xlink:href="#DejaVuSans-20" transform="translate(222.318359 0)"/>
      <use xlink:href="#DejaVuSans-49" transform="translate(254.105469 0)"/>
      <use xlink:href="#DejaVuSans-4c" transform="translate(283.597656 0)"/>
      <use xlink:href="#DejaVuSans-73" transform="translate(339.310547 0)"/>
     </g>
    </g>
    <g id="line2d_58">
     <g>
      <use xlink:href="#mf1e016e37c" x="529.17125" y="62.753125" style="fill: #ff0000"/>
     </g>
    </g>
    <g id="text_25">
     <!-- Binary Mixtures -->
     <g transform="translate(565.17125 69.753125) scale(0.2 -0.2)">
      <defs>
       <path id="DejaVuSans-42" d="M 1259 2228 
L 1259 519 
L 2272 519 
Q 2781 519 3026 730 
Q 3272 941 3272 1375 
Q 3272 1813 3026 2020 
Q 2781 2228 2272 2228 
L 1259 2228 
z
M 1259 4147 
L 1259 2741 
L 2194 2741 
Q 2656 2741 2882 2914 
Q 3109 3088 3109 3444 
Q 3109 3797 2882 3972 
Q 2656 4147 2194 4147 
L 1259 4147 
z
M 628 4666 
L 2241 4666 
Q 2963 4666 3353 4366 
Q 3744 4066 3744 3513 
Q 3744 3084 3544 2831 
Q 3344 2578 2956 2516 
Q 3422 2416 3680 2098 
Q 3938 1781 3938 1306 
Q 3938 681 3513 340 
Q 3088 0 2303 0 
L 628 0 
L 628 4666 
z
" transform="scale(0.015625)"/>
       <path id="DejaVuSans-4d" d="M 628 4666 
L 1569 4666 
L 2759 1491 
L 3956 4666 
L 4897 4666 
L 4897 0 
L 4281 0 
L 4281 4097 
L 3078 897 
L 2444 897 
L 1241 4097 
L 1241 0 
L 628 0 
L 628 4666 
z
" transform="scale(0.015625)"/>
      </defs>
      <use xlink:href="#DejaVuSans-42"/>
      <use xlink:href="#DejaVuSans-69" transform="translate(68.603516 0)"/>
      <use xlink:href="#DejaVuSans-6e" transform="translate(96.386719 0)"/>
      <use xlink:href="#DejaVuSans-61" transform="translate(159.765625 0)"/>
      <use xlink:href="#DejaVuSans-72" transform="translate(221.044922 0)"/>
      <use xlink:href="#DejaVuSans-79" transform="translate(262.158203 0)"/>
      <use xlink:href="#DejaVuSans-20" transform="translate(321.337891 0)"/>
      <use xlink:href="#DejaVuSans-4d" transform="translate(353.125 0)"/>
      <use xlink:href="#DejaVuSans-69" transform="translate(439.404297 0)"/>
      <use xlink:href="#DejaVuSans-78" transform="translate(467.1875 0)"/>
      <use xlink:href="#DejaVuSans-74" transform="translate(526.367188 0)"/>
      <use xlink:href="#DejaVuSans-75" transform="translate(565.576172 0)"/>
      <use xlink:href="#DejaVuSans-72" transform="translate(628.955078 0)"/>
      <use xlink:href="#DejaVuSans-65" transform="translate(667.818359 0)"/>
      <use xlink:href="#DejaVuSans-73" transform="translate(729.341797 0)"/>
     </g>
    </g>
    <g id="line2d_59">
     <g>
      <use xlink:href="#ma9ace8ad8b" x="529.17125" y="92.109375" style="fill: #0000ff"/>
     </g>
    </g>
    <g id="text_26">
     <!-- Ternary Mixtures -->
     <g transform="translate(565.17125 99.109375) scale(0.2 -0.2)">
      <use xlink:href="#DejaVuSans-54"/>
      <use xlink:href="#DejaVuSans-65" transform="translate(44.083984 0)"/>
      <use xlink:href="#DejaVuSans-72" transform="translate(105.607422 0)"/>
      <use xlink:href="#DejaVuSans-6e" transform="translate(144.970703 0)"/>
      <use xlink:href="#DejaVuSans-61" transform="translate(208.349609 0)"/>
      <use xlink:href="#DejaVuSans-72" transform="translate(269.628906 0)"/>
      <use xlink:href="#DejaVuSans-79" transform="translate(310.742188 0)"/>
      <use xlink:href="#DejaVuSans-20" transform="translate(369.921875 0)"/>
      <use xlink:href="#DejaVuSans-4d" transform="translate(401.708984 0)"/>
      <use xlink:href="#DejaVuSans-69" transform="translate(487.988281 0)"/>
      <use xlink:href="#DejaVuSans-78" transform="translate(515.771484 0)"/>
      <use xlink:href="#DejaVuSans-74" transform="translate(574.951172 0)"/>
      <use xlink:href="#DejaVuSans-75" transform="translate(614.160156 0)"/>
      <use xlink:href="#DejaVuSans-72" transform="translate(677.539062 0)"/>
      <use xlink:href="#DejaVuSans-65" transform="translate(716.402344 0)"/>
      <use xlink:href="#DejaVuSans-73" transform="translate(777.925781 0)"/>
     </g>
    </g>
   </g>
  </g>
 </g>
 <defs>
  <clipPath id="pa18bf1b6a8">
   <rect x="79.574375" y="7.2" width="669.6" height="332.64"/>
  </clipPath>
 </defs>
</svg>
